<?xml version="1.0" encoding="utf-8"?>
<!-- Generator: Adobe Illustrator 16.0.4, SVG Export Plug-In . SVG Version: 6.00 Build 0)  -->
<!DOCTYPE svg PUBLIC "-//W3C//DTD SVG 1.1//EN" "http://www.w3.org/Graphics/SVG/1.1/DTD/svg11.dtd">
<svg version="1.1" xmlns="http://www.w3.org/2000/svg" xmlns:xlink="http://www.w3.org/1999/xlink" x="0px" y="0px"
	 width="415.905px" height="506.588px" viewBox="0 0 415.905 506.588" enable-background="new 0 0 415.905 506.588"
	 xml:space="preserve">
<g id="Layer_2">
	<g>
		<path stroke="#000000" stroke-width="10" stroke-miterlimit="10" d="M121.088,371.088c-0.96,0-2.52-1.199-2.52-2.399v-80.276
			c0-2.28,3.72-2.28,3.72,0v79.076h26.879c2.4,0,2.4,3.6,0,3.6H121.088z"/>
		<path stroke="#000000" stroke-width="10" stroke-miterlimit="10" d="M179.168,285.653c9.96,0,18.239,7.919,18.239,18.238v49.799
			c0,10.199-7.92,18.719-18.239,18.719s-18.239-8.52-18.239-18.719v-49.799C160.929,293.692,168.969,285.653,179.168,285.653z
			 M193.688,353.809v-49.918c0-7.68-6.479-14.52-14.52-14.52s-14.52,6.601-14.52,14.52v49.918c0.12,7.561,6.24,14.88,14.52,14.88
			C187.568,368.689,193.688,361.489,193.688,353.809z"/>
		<path stroke="#000000" stroke-width="10" stroke-miterlimit="10" d="M217.808,304.131l-2.641-8.76l-0.72,0.12l0.96,6.601v67.916
			c0,2.16-3.72,2.041-3.72,0v-81.596c0-1.92,2.76-2.76,3.72-0.601c6.24,15.84,13.439,33.959,20.64,51.478
			c3.359,8.4,3,8.28,5.879,15.48l3.12,9.839h0.72l-0.959-5.399l-0.12-71.037c0-2.28,3.84-2.28,3.84,0v81.597
			c0,1.92-2.761,3.36-3.96,1.08c-5.16-13.319-11.16-27.959-16.92-42.358L217.808,304.131z"/>
		<path stroke="#000000" stroke-width="10" stroke-miterlimit="10" d="M297.726,353.209c0,9.96-7.92,17.879-17.88,17.879h-15.239
			c-1.319,0-2.52-1.199-2.52-2.399v-79.317c0-1.319,1.2-2.279,2.52-2.279h15.239c9.96,0,17.88,7.92,17.88,17.879V353.209z
			 M265.807,290.692v76.917h14.039c7.92,0,14.28-6.479,14.28-14.399v-48.357c0-7.801-6.36-14.16-14.28-14.16H265.807z"/>
		<path stroke="#000000" stroke-width="10" stroke-miterlimit="10" d="M330.486,285.653c9.96,0,18.239,7.919,18.239,18.238v49.799
			c0,10.199-7.92,18.719-18.239,18.719s-18.239-8.52-18.239-18.719v-49.799C312.247,293.692,320.287,285.653,330.486,285.653z
			 M345.005,353.809v-49.918c0-7.68-6.479-14.52-14.52-14.52s-14.52,6.601-14.52,14.52v49.918c0.12,7.561,6.24,14.88,14.52,14.88
			C338.885,368.689,345.005,361.489,345.005,353.809z"/>
		<path stroke="#000000" stroke-width="10" stroke-miterlimit="10" d="M369.125,304.131l-2.641-8.76l-0.72,0.12l0.96,6.601v67.916
			c0,2.16-3.72,2.041-3.72,0v-81.596c0-1.92,2.76-2.76,3.72-0.601c6.24,15.84,13.439,33.959,20.64,51.478
			c3.359,8.4,2.999,8.28,5.88,15.48l3.119,9.839h0.721l-0.961-5.399l-0.119-71.037c0-2.28,3.84-2.28,3.84,0v81.597
			c0,1.92-2.76,3.36-3.96,1.08c-5.16-13.319-11.16-27.959-16.92-42.358L369.125,304.131z"/>
	</g>
	<g>
		<path stroke="#000000" stroke-width="10" stroke-miterlimit="10" d="M148.967,393.091c2.28,0,2.28,3.72,0,3.72h-15v78.957
			c0,2.52-3.84,2.16-3.84,0v-78.957h-15.24c-2.16,0-2.16-3.72,0-3.72H148.967z"/>
		<path stroke="#000000" stroke-width="10" stroke-miterlimit="10" d="M179.567,391.651c9.959,0,18.24,7.92,18.24,18.24v49.797
			c0,10.2-7.92,18.72-18.24,18.72s-18.239-8.52-18.239-18.72v-49.797C161.328,399.691,169.368,391.651,179.567,391.651z
			 M194.086,459.809v-49.918c0-7.68-6.479-14.52-14.519-14.52s-14.52,6.6-14.52,14.52v49.918c0.12,7.559,6.24,14.879,14.52,14.879
			C187.967,474.688,194.086,467.489,194.086,459.809z"/>
		<path stroke="#000000" stroke-width="10" stroke-miterlimit="10" d="M212.086,459.208v-64.917c0-2.52,3.72-2.4,3.72,0v64.917
			c0,8.28,6.479,15.12,14.76,15.12c8.399,0,14.759-6.84,14.759-15.12v-64.917c0-2.52,3.84-3,3.84,0v64.917
			c0,10.2-8.039,18.72-18.599,18.72C220.126,477.928,212.086,469.409,212.086,459.208z"/>
		<path stroke="#000000" stroke-width="10" stroke-miterlimit="10" d="M265.846,392.971h15.719c9.84,0,18.119,8.039,18.119,18.119
			v8.04c0,7.68-7.439,14.759-14.039,16.56c7.68,1.68,14.159,9.359,14.159,16.559v23.16c0,2.76-3.72,2.398-3.72,0v-23.16
			c0-8.52-9-14.76-17.039-14.76h-11.88v37.92c0,2.52-3.72,2.639-3.72,0V395.25C263.446,393.692,264.646,392.971,265.846,392.971z
			 M279.045,433.77c7.68,0,16.919-6.24,16.919-14.64v-8.159c0-7.92-6.479-14.4-14.399-14.4h-14.399v37.199H279.045z"/>
		<path stroke="#000000" stroke-width="10" stroke-miterlimit="10" d="M332.323,392.251c9.479,0,17.76,7.8,18.239,17.759
			c-0.12,2.4-3.72,2.16-3.72,0c-0.24-7.92-6.84-14.039-14.52-14.039c-7.8,0-14.399,6.359-14.399,14.399v8.04
			c0,7.92,6.479,14.398,14.279,14.398c9.479,0.121,18.119,7.68,18.359,18.119v9.121c0,10.199-8.52,18.119-18.239,18.119
			c-9.6,0-18.119-7.92-18.119-18.119c0-2.16,3.72-2.16,3.72,0c0,8.039,6.6,14.519,14.399,14.519s14.52-6.479,14.52-14.519v-9.121
			c0-8.398-7.8-14.279-14.64-14.279c-10.199,0-17.999-8.639-17.999-18.238v-8.04C314.204,400.17,322.483,392.251,332.323,392.251z"
			/>
	</g>
</g>
<g id="Layer_4">
	<g>
		<g>
			<path stroke="#000000" stroke-width="5" stroke-miterlimit="10" d="M93.916,482.207H15.402c-1.551,0-2.807-1.257-2.807-2.807
				V216.329c0-1.551,1.256-2.807,2.807-2.807h78.513c1.551,0,2.807,1.256,2.807,2.807V479.4
				C96.722,480.95,95.466,482.207,93.916,482.207z M18.209,476.593h72.9V219.135h-72.9V476.593z"/>
		</g>
		<g>
			<path stroke="#000000" stroke-width="5" stroke-miterlimit="10" d="M93.916,119.563H15.402c-1.551,0-2.807-1.256-2.807-2.806
				V97.391c0-1.55,1.256-2.807,2.807-2.807h78.513c1.551,0,2.807,1.257,2.807,2.807v19.367
				C96.722,118.307,95.466,119.563,93.916,119.563z M18.209,113.951h72.9v-13.753h-72.9V113.951z"/>
		</g>
		<g>
			<path stroke="#000000" stroke-width="5" stroke-miterlimit="10" d="M93.925,100.197c-0.003,0-0.005,0-0.01,0H15.402
				c-0.983,0-1.895-0.515-2.402-1.356c-0.508-0.842-0.54-1.888-0.081-2.758l10.195-19.367c0.485-0.922,1.441-1.499,2.484-1.499
				h58.121c1.042,0,1.998,0.577,2.484,1.499l10.091,19.168c0.277,0.435,0.437,0.951,0.437,1.506
				C96.731,98.941,95.475,100.197,93.925,100.197z M20.051,94.583h69.215l-7.239-13.752H27.292L20.051,94.583z"/>
		</g>
		<g>
			<path stroke="#000000" stroke-width="5" stroke-miterlimit="10" d="M82.776,80.831H26.541c-1.55,0-2.807-1.257-2.807-2.807
				V58.658c0-1.55,1.256-2.807,2.807-2.807h56.235c1.552,0,2.807,1.256,2.807,2.807v19.366
				C85.583,79.574,84.328,80.831,82.776,80.831z M29.347,75.218H79.97V61.464H29.347V75.218z"/>
		</g>
		<g>
			<path stroke="#000000" stroke-width="5" stroke-miterlimit="10" d="M82.788,61.464c-0.004,0-0.008,0-0.012,0H26.541
				c-0.981,0-1.89-0.511-2.399-1.349c-0.509-0.837-0.544-1.88-0.093-2.75L51.744,4.014c0.482-0.93,1.443-1.514,2.491-1.514h0.848
				c1.048,0,2.008,0.583,2.491,1.514l27.589,53.152c0.273,0.432,0.43,0.944,0.43,1.493C85.593,60.208,84.336,61.464,82.788,61.464z
				 M31.16,55.852h46.998L54.659,10.581L31.16,55.852z"/>
		</g>
		<g>
			<path stroke="#000000" stroke-width="5" stroke-miterlimit="10" d="M104.011,219.135H5.307c-1.55,0-2.807-1.256-2.807-2.806
				v-98.704c0-1.55,1.257-2.807,2.807-2.807h98.705c1.55,0,2.807,1.256,2.807,2.807v98.704
				C106.818,217.879,105.561,219.135,104.011,219.135z M8.113,213.522h93.092v-93.091H8.113V213.522z"/>
		</g>
		<g>
			<g>
				<path stroke="#000000" stroke-width="5" stroke-miterlimit="10" d="M40.595,467.72c-1.55,0-2.806-1.257-2.806-2.807V230.815
					c0-1.551,1.256-2.807,2.806-2.807s2.807,1.256,2.807,2.807v234.098C43.401,466.463,42.145,467.72,40.595,467.72z"/>
			</g>
			<g>
				<path stroke="#000000" stroke-width="5" stroke-miterlimit="10" d="M68.723,467.72c-1.551,0-2.807-1.257-2.807-2.807V230.815
					c0-1.551,1.256-2.807,2.807-2.807c1.55,0,2.807,1.256,2.807,2.807v234.098C71.53,466.463,70.273,467.72,68.723,467.72z"/>
			</g>
		</g>
		<g>
			<path stroke="#000000" stroke-width="5" stroke-miterlimit="10" d="M55.031,206.97h-0.744c-21.847,0-39.621-17.773-39.621-39.621
				v-0.744c0-21.847,17.774-39.621,39.621-39.621h0.744c21.847,0,39.622,17.774,39.622,39.621v0.744
				C94.653,189.196,76.877,206.97,55.031,206.97z M54.287,132.597c-18.751,0-34.008,15.256-34.008,34.008v0.744
				c0,18.752,15.256,34.007,34.008,34.007h0.744c18.751,0,34.009-15.255,34.009-34.007v-0.744c0-18.752-15.258-34.008-34.009-34.008
				H54.287z"/>
		</g>
		<g>
			<path stroke="#000000" stroke-width="5" stroke-miterlimit="10" d="M77.064,181.8c-0.574,0-1.151-0.175-1.65-0.538L53.007,164.95
				c-0.726-0.528-1.155-1.372-1.155-2.269v-21.409c0-1.55,1.256-2.807,2.807-2.807c1.55,0,2.807,1.256,2.807,2.807v19.981
				l21.252,15.471c1.253,0.912,1.53,2.668,0.617,3.921C78.785,181.399,77.93,181.8,77.064,181.8z"/>
		</g>
	</g>
	<g>
	</g>
	<g>
	</g>
	<g>
	</g>
	<g>
	</g>
	<g>
	</g>
	<g>
	</g>
	<g>
	</g>
	<g>
	</g>
	<g>
	</g>
	<g>
	</g>
	<g>
	</g>
	<g>
	</g>
	<g>
	</g>
	<g>
	</g>
	<g>
	</g>
</g>
</svg>
